<?xml version="1.0" encoding="UTF-8" standalone="no"?>
<!-- Created with Inkscape (http://www.inkscape.org/) -->

<svg
   version="1.1"
   id="svg1"
   width="128"
   height="128"
   viewBox="0 0 128 128"
   xmlns="http://www.w3.org/2000/svg"
   xmlns:svg="http://www.w3.org/2000/svg">
  <defs
     id="defs1" />
  <g
     id="g1"
     transform="matrix(0.125,0,0,0.125,0,498.967)">
    <path
       style="fill:#011627;fill-opacity:1"
       d="m 0,-3479.736 v -512 h 512 512 v 512 512 H 512 0 Z m 721.5,323.7449 c 23.84865,-0.2655 25.55716,-0.63 29.82206,-6.363 1.74488,-2.3454 1.84035,-10.8219 2.2538,-200.0975 l 0.43174,-197.6482 -8.39831,-8.3983 -8.39832,-8.3984 -3.04478,1.5746 c -6.705,3.4672 -6.16619,-14.0142 -6.16623,200.0584 l -4e-5,194.0275 H 506.54209 285.08426 l -0.0183,-193.3054 c -0.0169,-178.2628 -0.14743,-193.524 -1.67767,-196.1144 -2.2447,-3.8 -6.88019,-6.4245 -9.97512,-5.6478 -3.0465,0.7647 -10.0656,6.9948 -11.91943,10.5797 -1.15392,2.2315 -1.38474,32.5141 -1.42593,187.0752 -0.027,101.427 0.23689,190.9204 0.5865,198.8744 l 0.63566,14.4616 4.28569,4.5384 c 4.18402,4.4306 4.45937,4.5502 11.60503,5.0383 6.99927,0.4781 398.64404,0.2532 444.31932,-0.2551 z m -262.62728,-72.68 C 466.06683,-3232.3412 472,-3242.314 472,-3250.736 c 0,-5.2738 -3.06049,-12.9938 -6.52448,-16.4578 l -3.44243,-3.4424 -0.26654,-116.55 -0.26655,-116.55 17.21176,10e-5 17.21176,1e-4 -0.0361,112.75 c -0.0237,73.8873 0.31531,113.8883 0.98347,116.0524 0.85847,2.7806 0.75171,3.3965 -0.67565,3.8979 -6.92013,2.4308 -12.10675,10.2324 -12.94446,19.4709 -0.95671,10.5508 4.08081,19.3165 13.49308,23.4791 9.87185,4.3658 19.86682,2.6764 27.40153,-4.6314 7.97216,-7.7321 9.53028,-19.3355 3.83403,-28.5522 -2.4522,-3.9677 -9.47753,-10.4667 -11.31441,-10.4667 -1.09848,0 -1.31498,-20.1377 -1.24712,-115.9996 l 0.0821,-115.9996 17,-7e-4 17,-6e-4 -0.30939,93.2503 c -0.17017,51.2876 0.1247,103.7776 0.65526,116.6445 l 0.96464,23.3943 -2.77218,2.3326 c -3.8221,3.2161 -7.31639,11.7507 -7.32061,17.8801 -0.007,10.1477 7.99267,20.8757 17.88725,23.9879 6.95417,2.1874 12.57489,1.636 19.91068,-1.9531 4.44367,-2.174 6.12408,-3.7271 8.46181,-7.8203 6.96459,-12.1945 5.9687,-21.6864 -3.2762,-31.2259 -3.89079,-4.0148 -6.39803,-5.6867 -9.95126,-6.6359 L 569,-3275.1508 v -114.2399 -114.2399 l 14.25,-0.3027 c 7.8375,-0.1665 14.33236,-0.2953 14.43302,-0.2864 0.10066,0.01 0.28535,33.309 0.41043,74 0.12508,40.6911 0.5056,80.6803 0.84561,88.8649 l 0.61819,14.8813 -2.70704,2.8979 c -11.01703,11.7937 -5.32515,31.8761 11.09292,39.1386 6.04566,2.6743 11.75321,2.4444 18.74123,-0.7548 7.40413,-3.3897 8.91697,-4.8223 12.42498,-11.7657 5.21,-10.3121 3.0574,-21.5576 -5.73981,-29.9856 -3.72934,-3.5729 -10.60057,-6.7929 -14.49526,-6.7929 -1.77286,0 -1.87427,-1.1362 -1.87427,-21 v -21 l 9.5,-0.1875 c 5.225,-0.1031 10.7,-0.2156 12.16667,-0.25 2.10751,-0.049 2.86815,0.5665 3.6276,2.9375 2.66166,8.3096 12.34128,14.9572 21.70573,14.9066 14.74956,-0.08 26.01935,-11.7155 25.99023,-26.8347 -0.0339,-17.5763 -21.15492,-31.3602 -36.18258,-23.6133 -6.02598,3.1064 -9.49897,6.6663 -11.42576,11.7115 l -1.65361,4.3299 h -11.70992 -11.70992 l -0.60462,-13.3762 c -0.33254,-7.3569 -0.33229,-19.7435 5.4e-4,-27.5258 l 0.60516,-14.1497 14.59524,0.2758 c 14.13126,0.2671 14.6051,0.3451 14.90528,2.4533 0.43962,3.0875 7.7343,11.0495 12.21998,13.3379 5.97375,3.0476 11.28936,3.5124 16.73484,1.4632 6.45785,-2.4301 11.72839,-6.7605 14.99837,-12.323 6.85083,-11.6539 0.86376,-28.6949 -12.22236,-34.7886 -11.30308,-5.2634 -24.55424,-1.2342 -29.79207,9.0588 l -1.48882,2.9257 -15.12979,0.074 -15.1298,0.074 -0.18286,-9.5 c -0.10058,-5.225 -0.21316,-14.8038 -0.2502,-21.2862 l -0.0673,-11.7862 2.5,-0.511 c 1.375,-0.281 5.875,-1.8525 10,-3.4921 26.94442,-10.7101 46.94934,-33.6535 51.02067,-58.515 1.47001,-8.9766 1.16928,-26.5679 -0.60181,-35.2017 -6.72903,-32.8031 -39.24256,-60.835 -73.0279,-62.9617 l -8.10904,-0.5104 -1.6259,-5.1179 c -2.34668,-7.3866 -10.11145,-20.6076 -15.95061,-27.159 -11.95702,-13.4154 -34.75008,-27.4857 -50.37311,-31.0955 -12.1011,-2.796 -36.06727,-2.5398 -47.3323,0.5059 -17.77557,4.8061 -35.66574,17.0243 -46.62408,31.8421 -6.57117,8.8856 -12.76905,20.0871 -14.26908,25.7887 l -1.05235,4 -12.27724,0.072 c -19.17246,0.1124 -31.1322,4.3733 -46.12198,16.432 -21.71949,17.4724 -31.12622,36.5126 -30.8759,62.496 0.13571,14.088 1.74423,23.5919 5.58888,33.0221 9.92554,24.3455 27.9916,41.3661 51.47934,48.5002 5.46933,1.6613 7.1374,2.5744 6.71476,3.6759 -0.30929,0.8059 -0.56235,10.3469 -0.56235,21.2022 v 19.7368 l -14.25,-0.4129 -14.25,-0.4128 -4.57432,-4.8843 c -10.1333,-10.8199 -24.41742,-12.1899 -34.76326,-3.3342 -5.24142,4.4864 -8.16842,10.065 -8.87549,16.9159 -0.44225,4.285 -0.0637,6.299 2.05309,10.9226 4.9412,10.793 8.62482,14.02 18.98031,16.6276 3.87174,0.9749 5.49504,0.8713 10.38439,-0.6626 6.89705,-2.1639 14.96088,-9.4745 15.9598,-14.4691 l 0.62584,-3.1292 14.10482,0.5212 14.10482,0.5212 0.23908,6.8297 c 0.13149,3.7563 0.35649,15.9427 0.5,27.0808 l 0.26092,20.2512 h -12.68261 c -11.57785,-10e-4 -12.7351,-0.1665 -13.28518,-1.8997 -2.5367,-7.9926 -14.34935,-16.1016 -23.45543,-16.1016 -6.5561,0 -13.26454,3.3103 -18.73463,9.2446 -9.58655,10.4002 -9.06189,24.4037 1.31433,35.0804 6.17484,6.3537 10.43662,7.9845 19.49565,7.46 10.35707,-0.5995 16.21481,-4.0115 19.84787,-11.5608 l 2.5,-5.1949 12.88929,-0.015 12.88929,-0.015 -0.6306,5.25 c -0.34683,2.8875 -0.63451,12.3375 -0.63929,21 L 395,-3333.736 h -2.34028 c -4.06882,0 -14.3915,5.8735 -17.72931,10.0879 -6.07897,7.6753 -7.4116,17.1893 -3.56482,25.4502 4.69927,10.0916 17.18871,17.4802 27.22312,16.1048 5.21079,-0.7142 13.03147,-4.5004 16.09922,-7.7939 8.19031,-8.7932 8.19176,-24.5057 0.003,-33.849 l -2.19105,-2.5 0.25907,-89 0.25908,-89 14.99092,0.3001 14.99105,0.3001 v 114.3221 114.3221 l -3.79563,0.6069 c -8.89394,1.4222 -17.39102,13.435 -17.33804,24.5118 0.06,12.5545 8.71795,21.8754 22.63367,24.3668 3.13346,0.561 10.05828,-0.9639 14.37272,-3.165 z m -15.4846,-13.045 c -3.26271,-1.3183 -6.38812,-5.9504 -6.38812,-9.4677 0,-6.0862 8.04578,-11.0185 13.97066,-8.5644 6.76859,2.8037 8.01818,10.2234 2.62934,15.6122 -3.43655,3.4365 -6.12123,4.0727 -10.21188,2.4199 z m 57.84212,-0.5712 c -3.59975,-2.5214 -4.51054,-5.0694 -3.2151,-8.9946 1.47978,-4.4838 4.42625,-6.4541 9.6516,-6.4541 4.90282,0 8.88519,2.913 9.90233,7.2433 0.52965,2.2548 0.02,3.3676 -2.86235,6.25 -2.80312,2.8031 -4.28471,3.5067 -7.38421,3.5067 -2.13263,0 -4.87414,-0.6981 -6.09227,-1.5513 z m 58.87552,-1.3499 c -2.41884,-2.2595 -3.10576,-3.7404 -3.10576,-6.6953 0,-10.4649 14.9533,-13.1731 18.98552,-3.4385 0.9813,2.3691 0.8893,3.4965 -0.52924,6.4859 -3.40053,7.1661 -9.9246,8.7165 -15.35052,3.6479 z M 391,-3299.4032 c -8.27807,-5.8653 -7.79849,-14.2829 1.07518,-18.8717 5.75955,-2.9784 12.92482,2.4244 12.92482,9.7456 0,7.421 -8.54499,12.9912 -14,9.1261 z m 223.32752,0.5926 c -3.54664,-1.3119 -7.32752,-6.7819 -7.32752,-10.6009 0,-5.0042 4.71797,-9.3245 10.18268,-9.3245 3.09305,0 4.64521,0.674 7.01944,3.0483 2.67342,2.6734 2.98125,3.5479 2.50327,7.1115 -0.90741,6.7652 -7.15794,11.6966 -12.37787,9.7656 z m -273.44517,-79.8077 c -4.79354,-4.7936 -5.24598,-9.3437 -1.3853,-13.9318 4.55836,-5.4173 10.83659,-4.9673 14.49875,1.0392 2.38494,3.9116 2.54864,7.8214 0.49385,11.7949 -3.16255,6.1157 -8.18417,6.5208 -13.6073,1.0977 z m 318.40894,1.6323 c -3.09679,-3.3868 -5.34997,-8.397 -4.69354,-10.4367 1.98205,-6.1585 5.63225,-9.3133 10.77586,-9.3133 6.0092,0 11.35317,8.7938 8.59574,14.1447 -3.91603,7.5993 -10.54137,10.1294 -14.67806,5.6053 z m -319.10153,-69.1029 c -5.37557,-2.983 -7.81803,-10.8774 -4.72959,-15.2868 1.90969,-2.7264 6.88579,-4.7413 9.8638,-3.9938 1.29953,0.3261 3.55827,1.7885 5.01941,3.2496 4.06968,4.0697 3.38982,8.6915 -2.15266,14.6339 -2.8236,3.0274 -4.52711,3.3248 -8.00096,1.3971 z m 324.16955,-0.6929 c -6.53898,-4.1894 -6.68533,-12.4605 -0.29686,-16.7766 5.45315,-3.6842 11.25303,-1.6586 13.95945,4.8753 1.55985,3.7658 0.7,6.9628 -2.91287,10.8304 -3.38967,3.6286 -6.30419,3.919 -10.74972,1.0709 z m -202.84154,-85.4542 c -0.31062,-2.75 -0.44168,-13.1888 -0.29126,-23.1974 0.26314,-17.5087 0.35473,-18.2346 2.42043,-19.1816 5.52673,-2.5336 10.89979,-13.8631 9.77961,-20.621 -0.91097,-5.4957 -2.54043,-8.3097 -7.59634,-13.1188 -9.34048,-8.8844 -21.62479,-8.6819 -30.81468,0.508 -5.23921,5.2392 -7.7527,12.304 -6.51662,18.3167 1.041,5.0637 7.02643,13.5028 11.03573,15.5597 l 3.55177,1.8222 0.25231,22.3054 0.25232,22.3054 -20.04552,-0.4492 c -23.7473,-0.5322 -27.63292,-1.5511 -41.6361,-10.9177 -18.11249,-12.1152 -25.94553,-26.6672 -26.24584,-48.7586 -0.17848,-13.1296 2.20046,-22.0982 8.3241,-31.3819 8.53605,-12.9409 17.36112,-20.3162 29.03633,-24.2662 10.74173,-3.6342 19.88997,-4.7546 33.63192,-4.1189 l 12.15594,0.5623 0.99001,-2.6842 c 0.5445,-1.4763 2.63428,-7.4473 4.64395,-13.2689 4.48798,-13.0007 9.60132,-21.1037 19.60133,-31.0618 5.64408,-5.6204 9.64335,-8.5914 15.09356,-11.2129 10.04163,-4.8298 16.06428,-5.9964 31.35928,-6.0744 11.80744,-0.06 13.73388,0.193 21,2.7595 9.82011,3.4685 22.6042,11.8196 29.28639,19.131 8.42267,9.2157 12.09262,17.0113 18.38048,39.0433 l 1.42699,5 16.95307,0.592 c 18.8785,0.6593 25.29904,2.1892 34.8637,8.3077 6.85281,4.3837 15.5678,14.1772 19.48694,21.8985 6.4981,12.8023 7.36404,33.9093 1.98137,48.2958 -2.80541,7.4981 -10.79346,18.3336 -16.99939,23.0591 -5.49525,4.1843 -9.823,6.7701 -10.3396,6.1779 -0.15882,-0.182 -0.50351,-8.8846 -0.76599,-19.3391 l -0.47723,-19.008 3.10164,-1.5382 c 2.01685,-1.0003 4.06343,-3.421 5.85163,-6.9213 4.83845,-9.4711 3.14236,-18.5544 -4.49804,-24.0891 -8.20904,-5.9466 -15.96533,-6.2163 -24.08576,-0.8376 -10.56348,6.997 -11.42194,21.0399 -1.78204,29.1514 l 2.97187,2.5006 0.5633,24.1252 0.56331,24.1251 h -15.85175 c -8.71846,0 -17.97797,0.2914 -20.5767,0.6476 l -4.72495,0.6477 0.42137,-22.2088 0.42138,-22.2088 2.914,-1.8121 c 7.57671,-4.7118 13.08125,-14.4914 11.9917,-21.3051 -0.8496,-5.3132 -2.68656,-8.6506 -7.26079,-13.1917 -7.69801,-7.6422 -15.92155,-9.3632 -24.85777,-5.2019 -11.87357,5.529 -16.48656,17.646 -11.0911,29.1331 2.5677,5.4667 4.84757,7.871 8.53049,8.9962 l 2.39852,0.7328 -0.64447,12.6355 c -0.35445,6.9495 -0.64573,17.5855 -0.64728,23.6355 l -0.003,11 -17.36276,-0.2935 -17.36277,-0.2935 0.11153,-50.2127 0.11153,-50.2128 3.99472,-1.9937 c 4.68828,-2.34 9.41046,-9.3679 10.18763,-15.1622 1.55589,-11.6001 -8.7045,-25.1627 -20.35816,-26.9102 -12.29069,-1.8431 -24.53527,7.7052 -25.93764,20.2262 -0.96695,8.6333 4.0666,18.4414 11.20189,21.8273 l 3.70134,1.7564 -0.64489,10.5399 c -0.35469,5.797 -0.64474,28.5824 -0.64455,50.6344 l 5.1e-4,40.0944 h -16.95908 -16.95907 z m -60.84047,-48.5858 c 11.12742,-5.3867 11.53295,-18.4492 0.76697,-24.705 -12.76847,-7.4195 -30.33502,5.4325 -24.04665,17.5928 4.32611,8.3658 14.35858,11.4308 23.27968,7.1122 z m 45.24578,-7.8373 c -4.33401,-4.334 -3.56481,-8.6595 2.0569,-11.5666 4.03676,-2.0874 5.71926,-1.902 8.56547,0.9442 3.2478,3.2478 3.31118,8.3921 0.1401,11.3712 -3.25313,3.0561 -7.23455,2.7792 -10.76247,-0.7488 z m 110.57692,1.9777 c -1.1,-0.4502 -2.85372,-1.7678 -3.89715,-2.9279 -4.4714,-4.9716 2.75483,-13.2924 9.50135,-10.9405 6.27323,2.1868 7.65053,8.1595 2.81907,12.2249 -3.18836,2.6828 -5.01379,3.039 -8.42327,1.6435 z m 56.07143,-2.626 c -2.13545,-2.1355 -1.97395,-4.6472 0.50115,-7.7937 2.63268,-3.347 5.22216,-3.347 7.85484,0 2.82455,3.5908 2.60392,5.62 -0.83171,7.6495 -3.60387,2.1288 -5.50321,2.1652 -7.52428,0.1442 z m -112.45763,-55.0111 c -1.11726,-1.4203 -2.2981,-3.4228 -2.62411,-4.45 -0.89718,-2.8267 2.18998,-7.8471 5.91886,-9.6253 2.86564,-1.3665 3.70691,-1.3955 6.16849,-0.2123 3.65013,1.7545 5.91763,5.763 5.10086,9.0173 -1.84153,7.3372 -10.4795,10.4631 -14.5641,5.2703 z m -287.26493,91.8653 c 2.11381,-0.9941 22.17753,-19.8505 47.65113,-44.7838 43.22086,-42.304 86.69993,-84.2535 101.5,-97.9292 4.125,-3.8117 18.53665,-17.5367 32.02588,-30.5 13.48923,-12.9634 33.96423,-32.5244 45.5,-43.4688 11.53577,-10.9445 30.77153,-29.5714 42.74614,-41.393 18.41619,-18.181 22.06692,-21.3563 23.68531,-20.601 1.05231,0.4911 12.87876,11.468 26.28101,24.393 13.40224,12.925 32.21885,30.8971 41.81469,39.9381 9.59583,9.041 33.44675,31.991 53.00203,51 19.55529,19.009 46.55529,44.9002 60,57.5359 27.56024,25.9019 46.97093,44.6779 83.94494,81.2001 16.3483,16.1486 26.48931,25.4321 28.25657,25.8673 4.2197,1.039 9.50108,-0.3531 12.91613,-3.4044 2.46604,-2.2034 3.18111,-3.7637 3.56744,-7.7844 0.44219,-4.6019 0.19793,-5.357 -2.87847,-8.8984 -4.70607,-5.4174 -40.12477,-40.0569 -59.83783,-58.5215 -9.06189,-8.488 -21.66189,-20.6965 -28,-27.1301 -6.33811,-6.4336 -13.77384,-13.5699 -16.52384,-15.8584 -10.00762,-8.3283 -56.50809,-52.8761 -76.32402,-73.119 -11.17822,-11.4191 -26.25322,-26.2514 -33.5,-32.9607 -16.88487,-15.6326 -60.20887,-57.317 -73.17598,-70.4066 -10.24731,-10.344 -13.89271,-12.4909 -21.11602,-12.4359 -7.82469,0.06 -8.60506,0.7249 -68.55938,58.455 -66.14334,63.6895 -84.03228,80.7567 -115.32395,110.0266 -17.04964,15.948 -47.64964,45.5103 -68,65.694 -20.35036,20.1838 -41.1171,40.6587 -46.14832,45.5 -12.76455,12.2827 -14.2478,15.7554 -10.25352,24.0065 3.38366,6.9897 9.45233,9.0109 16.75006,5.5787 z m 540.91655,-171.6121 0.26542,-69.3292 -2.26542,-3.3191 c -1.24598,-1.8256 -3.8334,-4.1524 -5.74982,-5.1708 -3.26038,-1.7326 -6.76427,-1.8514 -54.5,-1.8479 -48.80271,0 -51.15422,0.088 -54.21127,1.9523 -5.8221,3.55 -6.76667,6.1414 -7.1538,19.6267 l -0.34947,12.1734 7.34947,5.7666 c 4.04221,3.1716 10.16197,8.501 13.59947,11.8431 l 6.25,6.0764 0.004,-15.9711 0.004,-15.9711 35.61075,-0.3706 35.61075,-0.3705 -0.36449,51.4662 c -0.40083,56.5964 -0.79485,52.8562 5.99792,56.9349 6.42029,3.8551 17.87833,12.722 18.48603,14.3057 0.32383,0.8438 0.7154,1.5342 0.87017,1.5342 0.15476,-10e-5 0.40082,-31.1982 0.5468,-69.3292 z"
       id="path1" />
  </g>
</svg>
